<svg id="Capa_1" enable-background="new 0 0 504.5 504.5" height="512" viewBox="0 0 504.5 504.5" width="512" xmlns="http://www.w3.org/2000/svg"><g><path d="m215.339 464.645 36.785-10 36.785 10v3.069c0 20.316-16.469 36.785-36.785 36.785-20.316 0-36.785-16.469-36.785-36.785z" fill="#60b7ff"/><path d="m279.22 464.645h-64.192c-7.242 0-13.113-5.871-13.113-13.113v-87.305l50.209-10 40.209 10v87.305c.001 7.242-5.87 13.113-13.113 13.113z" fill="#c4e2ff"/><path d="m275.334 359.999v91.533c0 7.242-5.871 13.113-13.113 13.113h27c7.242 0 13.114-5.871 13.114-13.113v-87.305z" fill="#8ac9fe"/><g><path d="m252.25 48.662c-4.142 0-7.5-3.358-7.5-7.5v-33.662c0-4.142 3.358-7.5 7.5-7.5 4.143 0 7.5 3.358 7.5 7.5v33.662c0 4.142-3.358 7.5-7.5 7.5z" fill="#fed402"/></g><g><path d="m364.402 95.117c-1.919 0-3.839-.732-5.304-2.197-2.929-2.929-2.929-7.678 0-10.606l23.803-23.803c2.93-2.929 7.678-2.929 10.607 0s2.929 7.678 0 10.606l-23.802 23.803c-1.465 1.465-3.385 2.197-5.304 2.197z" fill="#fed402"/></g><g><path d="m116.295 343.224c-1.919 0-3.839-.732-5.303-2.197-2.929-2.929-2.929-7.678 0-10.606l23.803-23.803c2.929-2.929 7.678-2.929 10.607 0s2.929 7.678 0 10.606l-23.803 23.803c-1.465 1.465-3.385 2.197-5.304 2.197z" fill="#fed402"/></g><g><path d="m140.098 95.117c-1.919 0-3.839-.732-5.303-2.197l-23.803-23.803c-2.929-2.929-2.929-7.678 0-10.606 2.929-2.929 7.678-2.929 10.606 0l23.803 23.803c2.929 2.929 2.929 7.678 0 10.606-1.464 1.465-3.384 2.197-5.303 2.197z" fill="#fed402"/></g><g><path d="m388.205 343.224c-1.92 0-3.839-.732-5.304-2.197l-23.803-23.803c-2.929-2.929-2.929-7.678 0-10.606 2.93-2.93 7.678-2.929 10.607 0l23.803 23.803c2.929 2.929 2.929 7.678 0 10.606-1.464 1.465-3.384 2.197-5.303 2.197z" fill="#fed402"/></g><g><path d="m93.643 207.269h-33.662c-4.142 0-7.5-3.358-7.5-7.5s3.358-7.5 7.5-7.5h33.662c4.142 0 7.5 3.358 7.5 7.5s-3.358 7.5-7.5 7.5z" fill="#fed402"/></g><g><path d="m444.519 207.269h-33.663c-4.142 0-7.5-3.358-7.5-7.5s3.358-7.5 7.5-7.5h33.663c4.143 0 7.5 3.358 7.5 7.5s-3.357 7.5-7.5 7.5z" fill="#fed402"/></g><path d="m372.007 199.769c0-71.113-47.205-128.864-118.108-129.747-71.59-.892-131.407 58.152-131.407 129.747 0 38.383 16.667 72.87 43.158 96.625 19.202 17.22 31.72 40.66 35.975 66.098l.29 1.734h100.419l.245-1.467c4.329-25.882 7.533-49.323 26.947-66.979 26.097-23.732 42.481-57.956 42.481-96.011z" fill="#fed402"/><g><path d="m312.544 405.2h-120.588c-4.142 0-7.5-3.358-7.5-7.5s3.358-7.5 7.5-7.5h120.588c4.143 0 7.5 3.358 7.5 7.5s-3.358 7.5-7.5 7.5z" fill="#60b7ff"/></g><g><path d="m312.544 438.672h-120.588c-4.142 0-7.5-3.358-7.5-7.5s3.358-7.5 7.5-7.5h120.588c4.143 0 7.5 3.358 7.5 7.5 0 4.143-3.358 7.5-7.5 7.5z" fill="#60b7ff"/></g><path d="m253.899 70.022c-5.072-.063-10.082.185-15.019.706 65.255 6.813 116.127 61.982 116.127 129.041 0 38.055-16.384 72.279-42.481 96.012-19.414 17.656-32.618 41.096-36.947 66.979l-.245 1.467h27l.245-1.467c4.329-25.882 17.533-49.323 36.947-66.979 26.097-23.733 42.481-57.957 42.481-96.012 0-71.112-57.205-128.864-128.108-129.747z" fill="#fac600"/><path d="m339.899 210.659v-21.78c0-2.761-2.239-5-5-5h-20.544c-1.524-5.975-3.89-11.612-6.961-16.783l14.533-14.533c1.953-1.953 1.953-5.118 0-7.071l-15.4-15.4c-1.953-1.953-5.118-1.953-7.071 0l-14.533 14.533c-5.171-3.07-10.808-5.436-16.783-6.96v-20.545c0-2.761-2.239-5-5-5h-21.78c-2.761 0-5 2.239-5 5v20.544c-5.975 1.524-11.612 3.89-16.783 6.96l-14.533-14.533c-1.953-1.953-5.118-1.953-7.071 0l-15.4 15.4c-1.953 1.953-1.953 5.118 0 7.071l14.533 14.533c-3.07 5.171-5.436 10.808-6.961 16.783h-20.544c-2.761 0-5 2.239-5 5v21.78c0 2.761 2.239 5 5 5h20.544c1.524 5.975 3.89 11.612 6.961 16.783l-14.533 14.533c-1.953 1.953-1.953 5.118 0 7.071l15.4 15.4c1.953 1.953 5.118 1.953 7.071 0l14.533-14.533c5.171 3.07 10.808 5.436 16.783 6.96v20.544c0 2.761 2.239 5 5 5h21.78c2.761 0 5-2.239 5-5v-20.544c5.975-1.524 11.612-3.89 16.783-6.961l14.533 14.533c1.953 1.953 5.118 1.953 7.071 0l15.4-15.4c1.953-1.953 1.953-5.118 0-7.071l-14.533-14.533c3.07-5.171 5.436-10.808 6.961-16.783h20.544c2.761.002 5-2.237 5-4.998zm-87.649 20.079c-17.104 0-30.969-13.865-30.969-30.969s13.865-30.969 30.969-30.969 30.969 13.865 30.969 30.969-13.866 30.969-30.969 30.969z" fill="#efedef"/></g></svg>