<?xml version="1.0" standalone="no"?>
<!DOCTYPE svg PUBLIC "-//W3C//DTD SVG 20010904//EN"
 "http://www.w3.org/TR/2001/REC-SVG-20010904/DTD/svg10.dtd">
<svg version="1.0" xmlns="http://www.w3.org/2000/svg"
 width="1052.000000pt" height="1280.000000pt" viewBox="0 0 1052.000000 1280.000000"
 preserveAspectRatio="xMidYMid meet">
<metadata>
Created by potrace 1.15, written by Peter Selinger 2001-2017
</metadata>
<g transform="translate(0.000000,1280.000000) scale(0.100000,-0.100000)"
fill="#000000" stroke="none">
<path d="M9762 12776 c-51 -13 -94 -25 -97 -27 -2 -3 0 -61 6 -129 5 -69 6
-192 3 -275 -7 -176 -25 -246 -134 -520 -99 -248 -175 -384 -257 -459 -120
-110 -121 -110 -65 -5 42 78 57 123 92 269 l42 175 -6 170 c-6 145 -12 188
-38 290 -31 117 -34 123 -127 257 -53 75 -99 137 -102 137 -7 1 -59 -218 -59
-247 0 -11 15 -62 34 -113 l33 -94 -22 -160 c-12 -88 -30 -198 -40 -244 -21
-96 -19 -99 -66 80 l-33 121 -130 124 c-72 68 -133 124 -137 124 -3 0 -19 -46
-36 -101 l-31 -101 49 -69 49 -69 0 -103 c1 -56 9 -146 19 -201 l18 -98 -55
-139 c-45 -115 -59 -140 -78 -145 -35 -9 -208 32 -385 91 l-159 54 0 -109 0
-108 181 -61 c177 -60 212 -77 347 -177 14 -10 -77 -108 -178 -195 -76 -66
-151 -142 -204 -209 -47 -58 -120 -142 -163 -187 l-78 -82 -116 26 -117 26
-88 77 -89 76 4 102 3 102 -62 113 c-35 61 -89 149 -120 193 -44 61 -65 104
-85 170 -25 82 -27 98 -22 204 7 134 56 379 115 578 25 83 36 132 28 132 -6 0
-63 8 -128 18 l-116 19 -57 -131 c-82 -189 -114 -345 -125 -615 l-9 -205 35
-175 c23 -118 44 -195 62 -233 16 -32 26 -58 23 -58 -3 0 -60 9 -126 19 -108
17 -140 28 -319 105 -238 102 -317 158 -514 360 -70 72 -147 148 -170 168
l-44 36 73 124 c39 68 116 188 171 268 92 136 102 156 148 294 l50 148 -20
101 c-13 65 -26 106 -36 114 -27 20 -174 94 -174 88 0 -3 -16 -80 -36 -172
l-36 -167 -170 -306 c-93 -168 -171 -306 -172 -307 -1 -2 -29 17 -62 41 -55
40 -111 98 -286 297 l-67 76 -17 99 c-10 61 -18 199 -22 358 l-7 259 -98 22
c-54 12 -100 19 -102 14 -3 -4 -21 -54 -41 -111 l-37 -103 7 -195 c6 -191 6
-194 -12 -165 -10 17 -35 85 -56 151 l-39 122 -109 102 c-60 56 -110 101 -112
99 -6 -9 -76 -202 -76 -212 0 -28 114 -354 154 -439 39 -82 67 -122 185 -260
110 -129 163 -181 253 -251 85 -67 179 -158 383 -376 149 -158 284 -298 302
-312 17 -13 37 -34 44 -46 7 -13 19 -23 27 -23 7 0 84 -55 170 -123 87 -68
196 -147 243 -175 85 -51 88 -54 125 -130 32 -67 39 -93 50 -197 12 -114 16
-127 79 -270 57 -128 81 -169 168 -284 91 -119 111 -140 182 -185 44 -29 95
-58 113 -65 39 -16 38 -8 8 -221 -19 -129 -39 -216 -94 -400 -61 -206 -80
-256 -157 -410 -48 -96 -95 -182 -105 -190 -10 -8 -60 -49 -111 -91 l-94 -76
-330 22 -330 22 -370 -23 c-203 -13 -451 -24 -550 -24 -167 0 -200 3 -454 45
-172 29 -378 55 -555 70 -175 15 -357 38 -481 60 -563 101 -1175 153 -1640
139 l-230 -6 -275 -145 c-247 -130 -298 -162 -495 -306 -121 -88 -286 -211
-367 -273 l-148 -112 -126 -191 -127 -191 7 -83 c3 -45 24 -226 46 -402 22
-176 54 -443 70 -594 16 -151 32 -276 34 -278 2 -2 52 62 112 143 l108 148 9
-35 c5 -19 55 -109 113 -200 108 -174 152 -273 239 -553 l36 -116 -43 -97
c-23 -54 -79 -162 -123 -241 l-81 -143 -175 -112 -174 -113 -7 -109 c-4 -61
-11 -275 -17 -476 -15 -503 -81 -1179 -152 -1553 l-30 -159 15 -121 c9 -67 16
-127 16 -133 0 -7 24 -40 53 -75 29 -35 90 -116 134 -181 79 -115 85 -121 197
-198 l115 -79 152 0 c90 0 193 6 253 16 55 9 102 17 103 18 1 1 -50 104 -115
229 l-117 227 -96 64 c-93 63 -96 65 -112 120 -14 52 -14 72 13 353 15 164 31
359 35 433 14 300 35 492 67 615 36 142 31 132 124 260 49 69 129 157 249 273
97 94 185 176 195 182 20 10 20 6 20 -203 l0 -214 -34 -86 -34 -86 63 -165
c35 -91 75 -218 90 -283 17 -73 58 -195 107 -317 51 -129 98 -270 133 -400 51
-190 91 -301 313 -881 44 -115 108 -288 142 -384 71 -202 85 -222 230 -353 99
-89 107 -94 259 -158 99 -43 189 -73 248 -85 l92 -19 73 51 73 51 10 120 10
121 -140 157 c-113 127 -163 175 -257 244 -163 121 -205 176 -252 336 -20 66
-84 230 -142 365 -122 281 -257 664 -314 891 -39 153 -40 161 -40 333 l0 175
95 523 c93 518 211 1106 223 1119 4 3 97 -54 207 -128 109 -74 204 -134 210
-134 5 0 120 -37 255 -81 l245 -80 340 -19 c474 -27 725 -26 1083 5 275 23
295 24 335 8 23 -9 45 -19 49 -22 14 -12 58 -330 98 -716 22 -214 61 -523 85
-686 42 -273 45 -305 37 -399 -8 -98 -7 -104 21 -173 l29 -72 -7 -320 c-5
-259 -14 -411 -50 -800 l-43 -480 24 -220 c13 -121 24 -223 24 -226 0 -4 61
-55 136 -114 135 -107 136 -107 252 -142 l117 -35 149 11 c82 6 151 13 153 15
3 2 11 45 19 96 13 80 13 95 1 109 -8 9 -58 66 -112 126 -53 61 -132 161 -176
223 -113 160 -109 122 -109 924 l0 646 65 152 c42 99 68 173 73 213 l8 62 13
-80 c7 -44 26 -132 41 -195 25 -100 33 -170 59 -525 16 -225 32 -520 36 -655
l6 -245 36 -100 c80 -228 176 -481 187 -492 34 -34 347 -141 657 -222 l147
-39 76 77 76 77 -66 105 c-66 103 -69 107 -152 154 -68 39 -114 78 -231 196
l-146 147 -38 123 c-35 115 -41 148 -69 439 -26 279 -30 357 -31 680 -4 735
91 1685 215 2176 l41 162 216 274 216 275 97 199 c77 160 105 229 138 349 24
83 51 167 62 188 10 21 143 169 296 330 271 286 279 297 383 463 l107 169 70
225 c95 305 224 746 321 1100 45 162 85 296 89 299 5 3 39 31 78 62 81 67 181
103 309 113 44 4 103 9 130 12 l51 5 13 77 c20 109 24 191 16 311 l-7 103 -72
77 c-141 149 -276 325 -276 358 0 11 10 35 23 53 19 28 36 37 114 60 79 24
110 40 215 114 l123 87 87 152 c78 137 92 169 138 326 l52 174 -7 146 -7 146
-69 126 c-53 96 -74 126 -87 123 -72 -14 -214 -36 -217 -32 -2 2 57 65 133
141 102 102 177 165 296 249 l158 113 97 180 c94 176 99 184 248 348 84 92
199 225 257 296 l106 129 0 56 0 56 -179 0 -179 0 -38 -67 c-20 -38 -60 -108
-88 -158 l-51 -90 -6 80 c-4 44 -10 207 -15 363 l-7 282 -51 -1 c-28 0 -93
-11 -144 -23z"/>
</g>
</svg>
